<svg width="21" height="24" viewBox="0 0 21 24" fill="none" xmlns="http://www.w3.org/2000/svg">
<path fill-rule="evenodd" clip-rule="evenodd" d="M14.5514 5.53846C14.5514 7.57767 12.8087 9.23077 10.6591 9.23077C8.50938 9.23077 6.76672 7.57767 6.76672 5.53846C6.76672 3.49926 8.50938 1.84615 10.6591 1.84615C12.8087 1.84615 14.5514 3.49926 14.5514 5.53846ZM16.4976 5.53846C16.4976 8.59726 13.8836 11.0769 10.6591 11.0769C7.43455 11.0769 4.82056 8.59726 4.82056 5.53846C4.82056 2.47966 7.43455 0 10.6591 0C13.8836 0 16.4976 2.47966 16.4976 5.53846ZM2.87439 20.3077C2.87439 17.2488 5.48838 14.7692 8.71289 14.7692H12.6052C15.8298 14.7692 18.4437 17.2488 18.4437 20.3077V22.1538H2.87439V20.3077ZM0.928223 20.3077C0.928223 16.2294 4.41354 12.9231 8.71289 12.9231H12.6052C16.9045 12.9231 20.3899 16.2294 20.3899 20.3077V22.1538V24H18.4437H2.87439H0.928223V22.1538V20.3077Z" fill="#9758A6"/>
</svg>
